<svg width="96" height="84" viewBox="0 0 96 84" fill="none" xmlns="http://www.w3.org/2000/svg">
<path d="M89.9999 40.1098V38.6326H88.1655V36.336L88.1037 36.355L86.3806 36.8822L86.3467 36.8925V38.6327H83.627V37.6632C83.627 37.2119 83.728 36.8664 83.9269 36.6361C84.1244 36.4085 84.407 36.2928 84.7673 36.2928C85.0264 36.2928 85.2946 36.3538 85.5646 36.4741L85.6322 36.5044V34.9486L85.6004 34.9369C85.3486 34.8464 85.0061 34.8008 84.5815 34.8008C84.0464 34.8008 83.5603 34.9172 83.1362 35.148C82.712 35.3791 82.3783 35.709 82.1445 36.1285C81.9115 36.5474 81.7933 37.0313 81.7933 37.5668V38.6326H80.5159V40.1098H81.7933V46.3333H83.627V40.1098H86.3467V44.0647C86.3467 45.6936 87.115 46.519 88.6302 46.519C88.8791 46.519 89.1412 46.4898 89.4088 46.4327C89.6812 46.374 89.8667 46.3154 89.9759 46.2528L90 46.2385V44.7476L89.9254 44.797C89.8259 44.8633 89.702 44.9175 89.5567 44.9578C89.4107 44.9988 89.2888 45.0194 89.1944 45.0194C88.8395 45.0194 88.5769 44.9237 88.4139 44.735C88.2492 44.5445 88.1655 44.2114 88.1655 43.7455V40.1098H89.9999ZM76.4209 45.0196C75.7553 45.0196 75.2305 44.7989 74.8607 44.3642C74.4886 43.9273 74.3001 43.3043 74.3001 42.5129C74.3001 41.6963 74.4886 41.0572 74.8609 40.6126C75.2309 40.1709 75.7506 39.9467 76.4059 39.9467C77.0417 39.9467 77.5479 40.1608 77.9105 40.5834C78.2748 41.0082 78.4598 41.6422 78.4598 42.4683C78.4598 43.3045 78.2859 43.9468 77.943 44.3765C77.6024 44.803 77.0903 45.0196 76.4209 45.0196ZM76.5024 38.4471C75.2325 38.4471 74.224 38.8191 73.5048 39.553C72.7862 40.2869 72.4218 41.3025 72.4218 42.572C72.4218 43.7777 72.7775 44.7475 73.4791 45.454C74.1807 46.1608 75.1354 46.5188 76.3167 46.5188C77.5476 46.5188 78.5361 46.1415 79.2549 45.3975C79.9736 44.6543 80.3377 43.6483 80.3377 42.4085C80.3377 41.184 79.996 40.2069 79.3218 39.5051C78.6473 38.803 77.6986 38.4471 76.5024 38.4471ZM69.4653 38.4471C68.6015 38.4471 67.887 38.668 67.3412 39.1036C66.7921 39.5418 66.5135 40.1166 66.5135 40.8121C66.5135 41.1736 66.5736 41.4947 66.6919 41.7671C66.811 42.0404 66.9952 42.281 67.2399 42.4829C67.4828 42.6832 67.8578 42.893 68.3546 43.1065C68.7722 43.2783 69.0837 43.4237 69.2816 43.5383C69.4749 43.6506 69.6122 43.7634 69.6897 43.8734C69.765 43.981 69.8032 44.1282 69.8032 44.3099C69.8032 44.8273 69.4158 45.079 68.6186 45.079C68.3229 45.079 67.9856 45.0172 67.6161 44.8955C67.2492 44.7756 66.903 44.6001 66.5895 44.375L66.5133 44.3204V46.0859L66.5413 46.0989C66.8007 46.2186 67.1279 46.3196 67.5135 46.3991C67.8983 46.4787 68.248 46.5191 68.5517 46.5191C69.489 46.5191 70.2438 46.2971 70.7946 45.8589C71.3488 45.4177 71.6297 44.8294 71.6297 44.1098C71.6297 43.5908 71.4785 43.1456 71.1805 42.7866C70.8844 42.4306 70.3706 42.1037 69.654 41.8147C69.0831 41.5856 68.7174 41.3953 68.5665 41.2493C68.421 41.1083 68.3472 40.9088 68.3472 40.6561C68.3472 40.4322 68.4383 40.2528 68.6255 40.1075C68.8141 39.9615 69.0766 39.8872 69.4059 39.8872C69.7114 39.8872 70.024 39.9355 70.3349 40.03C70.6455 40.1246 70.9184 40.2513 71.1462 40.4063L71.2211 40.4575V38.7827L71.1923 38.7704C70.9822 38.6803 70.7051 38.6032 70.3685 38.5406C70.0335 38.4784 69.7296 38.4471 69.4653 38.4471ZM61.733 45.0196C61.0676 45.0196 60.5427 44.7989 60.173 44.3642C59.8008 43.9273 59.6126 43.3045 59.6126 42.5129C59.6126 41.6963 59.801 41.0572 60.1734 40.6126C60.5431 40.1709 61.0627 39.9467 61.7183 39.9467C62.3539 39.9467 62.8601 40.1608 63.2227 40.5834C63.5872 41.0082 63.772 41.6422 63.772 42.4683C63.772 43.3045 63.5981 43.9468 63.2551 44.3765C62.9146 44.803 62.4028 45.0196 61.733 45.0196ZM61.8148 38.4471C60.5446 38.4471 59.536 38.8191 58.8172 39.553C58.0986 40.2869 57.734 41.3025 57.734 42.572C57.734 43.7781 58.0899 44.7475 58.7915 45.454C59.4931 46.1608 60.4478 46.5188 61.629 46.5188C62.8597 46.5188 63.8485 46.1415 64.5673 45.3975C65.2859 44.6543 65.6501 43.6483 65.6501 42.4085C65.6501 41.184 65.3084 40.2069 64.634 39.5051C63.9593 38.803 63.0107 38.4471 61.8148 38.4471ZM54.9504 39.9662V38.6326H53.139V46.3331H54.9504V42.394C54.9504 41.7242 55.1023 41.1739 55.402 40.7583C55.6978 40.3476 56.0921 40.1395 56.5735 40.1395C56.7366 40.1395 56.9198 40.1664 57.1182 40.2196C57.3145 40.2725 57.4567 40.33 57.5405 40.3904L57.6167 40.4456V38.6194L57.5873 38.6068C57.4186 38.5351 57.18 38.499 56.878 38.499C56.4228 38.499 56.0155 38.6453 55.6666 38.9332C55.3603 39.1863 55.139 39.5334 54.9697 39.9662H54.9504ZM49.8951 38.4471C49.0641 38.4471 48.3229 38.6253 47.6924 38.9765C47.0606 39.3286 46.572 39.8313 46.2396 40.4705C45.9086 41.1081 45.7406 41.8529 45.7406 42.6835C45.7406 43.4111 45.9035 44.0788 46.2255 44.6673C46.5477 45.2567 47.0038 45.7178 47.581 46.0377C48.1574 46.3571 48.8237 46.519 49.5613 46.519C50.4222 46.519 51.1572 46.3469 51.7464 46.0075L51.7702 45.9939V44.3344L51.6941 44.3899C51.4272 44.5844 51.1289 44.7396 50.8079 44.8514C50.4878 44.9631 50.1959 45.0196 49.9399 45.0196C49.2292 45.0196 48.6586 44.7972 48.2444 44.3587C47.8293 43.9197 47.6189 43.3032 47.6189 42.5274C47.6189 41.7468 47.8383 41.1144 48.2709 40.6478C48.7021 40.1826 49.2738 39.9467 49.9698 39.9467C50.5652 39.9467 51.1454 40.1483 51.6943 40.5464L51.7702 40.6016V38.853L51.7457 38.8392C51.5392 38.7236 51.2574 38.6281 50.9077 38.5557C50.5594 38.4835 50.2188 38.4471 49.8951 38.4471ZM44.493 38.6327H42.6816V46.3331H44.493V38.6327ZM43.6059 35.3522C43.3077 35.3522 43.0477 35.4537 42.8341 35.6548C42.6196 35.8565 42.5108 36.1104 42.5108 36.4101C42.5108 36.7051 42.6183 36.9544 42.8308 37.1507C43.0419 37.3464 43.3027 37.4456 43.606 37.4456C43.9091 37.4456 44.1709 37.3464 44.3846 37.151C44.5996 36.9544 44.7086 36.7051 44.7086 36.4101C44.7086 36.1209 44.6025 35.8696 44.3934 35.6629C44.1845 35.4567 43.9194 35.3522 43.6059 35.3522ZM39.0863 38.0645V46.3331H40.9349V35.5879H38.3764L35.1243 43.5691L31.9683 35.5879H29.3056V46.333H31.0428V38.0637H31.1024L34.435 46.3331H35.7461L39.0267 38.0645H39.0863Z" fill="#706D6E"/>
<path d="M14.5213 40.5213H6V32H14.5213V40.5213Z" fill="#F1511B"/>
<path d="M23.9299 40.5213H15.4087V32H23.9299V40.5213Z" fill="#80CC28"/>
<path d="M14.5211 49.9353H6V41.4141H14.5211V49.9353Z" fill="#00ADEF"/>
<path d="M23.9299 49.9353H15.4087V41.4141H23.9299V49.9353Z" fill="#FBBC09"/>
</svg>
