<svg width="96" height="84" viewBox="0 0 96 84" fill="none" xmlns="http://www.w3.org/2000/svg">
<path d="M23.5391 30.7998H9.51341C7.58174 30.7998 6 32.3675 6 34.3132V48.3249C6 50.2706 7.58174 51.8383 9.51341 51.8383H23.5251C25.4708 51.8383 27.0385 50.2566 27.0385 48.3249V34.3132C27.0525 32.3675 25.4848 30.7998 23.5391 30.7998ZM23.2311 46.9111C23.2311 47.527 22.7272 48.0169 22.1253 48.0169H10.9412C10.3253 48.0169 9.83536 47.513 9.83536 46.9111V35.741C9.83536 35.1251 10.3393 34.6352 10.9412 34.6352H22.1113C22.7272 34.6352 23.2171 35.1391 23.2171 35.741V46.9111H23.2311ZM14.2866 44.1816C13.9367 44.1816 13.6427 43.9016 13.6427 43.5377V39.0864C13.6427 38.7365 13.9227 38.4425 14.2866 38.4425H18.7519C19.1018 38.4425 19.3958 38.7225 19.3958 39.0864V43.5517C19.3958 43.9016 19.1158 44.1956 18.7519 44.1956L14.2866 44.1816ZM32.6376 43.8736H34.9332C35.0452 45.1754 35.927 46.1972 37.7047 46.1972C39.3005 46.1972 40.2663 45.4134 40.2663 44.2236C40.2663 43.1178 39.4964 42.6138 38.1246 42.2919L36.3469 41.914C34.4153 41.494 32.9595 40.2482 32.9595 38.2186C32.9595 35.9789 34.9472 34.4392 37.5367 34.4392C40.2803 34.4392 42.044 35.881 42.198 38.0086H39.9723C39.7064 37.0148 38.8805 36.4269 37.5367 36.4269C36.123 36.4269 35.1431 37.1967 35.1431 38.1766C35.1431 39.1564 35.983 39.7443 37.4388 40.0663L39.2025 40.4442C41.1341 40.8641 42.4639 42.0399 42.4639 44.0836C42.4639 46.6872 40.5043 48.2409 37.7187 48.2409C34.5692 48.2269 32.8335 46.5192 32.6376 43.8736ZM50.6806 51.8523V48.0449L50.8345 46.3792H50.6806C50.1486 47.583 49.0428 48.2409 47.5451 48.2409C45.1235 48.2409 43.3178 46.2672 43.3178 43.2437C43.3178 40.2202 45.1235 38.2466 47.5451 38.2466C49.0288 38.2466 50.0787 38.9464 50.6806 40.0243H50.8345V38.4285H52.8222V51.8663H50.6806V51.8523ZM50.7645 43.2297C50.7645 41.2981 49.5747 40.1642 48.133 40.1642C46.6912 40.1642 45.5014 41.2981 45.5014 43.2297C45.5014 45.1614 46.6912 46.2952 48.133 46.2952C49.5747 46.2952 50.7645 45.1614 50.7645 43.2297ZM54.4179 44.2236V38.4145H56.5596V44.0276C56.5596 45.5533 57.2875 46.2812 58.5193 46.2812C60.017 46.2812 60.9968 45.2034 60.9968 43.5377V38.4145H63.1385V48.0309H61.1508V46.0433H60.9968C60.5209 47.3171 59.4991 48.2269 57.9034 48.2269C55.6077 48.2269 54.4179 46.7571 54.4179 44.2236ZM64.4403 45.3574C64.4403 43.5517 65.7001 42.5019 67.9397 42.3759L70.5852 42.2079V41.452C70.5852 40.5562 69.9273 40.0103 68.7655 40.0103C67.6877 40.0103 67.0578 40.5562 66.8899 41.326H64.7482C64.9722 39.3664 66.5959 38.2466 68.7655 38.2466C71.2291 38.2466 72.7269 39.2964 72.7269 41.326V48.0449H70.7392V46.2672H70.5852C70.1373 47.457 69.1995 48.2409 67.3938 48.2409C65.6581 48.2269 64.4403 47.0651 64.4403 45.3574ZM70.5852 44.1676V43.6637L68.4296 43.8176C67.2678 43.8876 66.7359 44.3216 66.7359 45.1894C66.7359 45.9173 67.3378 46.4492 68.1776 46.4492C69.7034 46.4352 70.5852 45.4694 70.5852 44.1676ZM74.3226 48.0449V38.4285H76.3103V40.2762H76.4643C76.7442 39.0164 77.7101 38.4285 79.1378 38.4285H80.1177V40.3462H78.8999C77.5141 40.3462 76.4783 41.2421 76.4783 42.9638V48.0309L74.3226 48.0449ZM89.916 43.6217H82.6092C82.7212 45.3854 83.967 46.3792 85.3388 46.3792C86.5006 46.3792 87.2285 45.9033 87.6484 45.1194H89.776C89.1881 47.0791 87.4804 48.2129 85.3248 48.2129C82.4833 48.2129 80.4956 46.0853 80.4956 43.2157C80.4956 40.3462 82.5392 38.2186 85.3388 38.2186C88.1523 38.2186 90 40.1502 90 42.5578C89.986 43.0478 89.944 43.2857 89.916 43.6217ZM87.8584 42.1379C87.7884 40.8081 86.6686 39.8983 85.3248 39.8983C84.051 39.8983 82.9732 40.7102 82.7072 42.1379H87.8584Z" fill="black"/>
</svg>
