<svg width="96" height="84" viewBox="0 0 96 84" fill="none" xmlns="http://www.w3.org/2000/svg">
<path d="M41.9561 42.1262C41.9561 45.4414 39.3626 47.8843 36.1798 47.8843C32.9971 47.8843 30.4036 45.4414 30.4036 42.1262C30.4036 38.7877 32.9971 36.3682 36.1798 36.3682C39.3626 36.3682 41.9561 38.7877 41.9561 42.1262ZM39.4275 42.1262C39.4275 40.0546 37.9244 38.6371 36.1798 38.6371C34.4353 38.6371 32.9322 40.0546 32.9322 42.1262C32.9322 44.1771 34.4353 45.6153 36.1798 45.6153C37.9244 45.6153 39.4275 44.1745 39.4275 42.1262Z" fill="#EA4335"/>
<path d="M54.4171 42.1262C54.4171 45.4414 51.8237 47.8843 48.6409 47.8843C45.4581 47.8843 42.8647 45.4414 42.8647 42.1262C42.8647 38.7903 45.4581 36.3682 48.6409 36.3682C51.8237 36.3682 54.4171 38.7877 54.4171 42.1262ZM51.8886 42.1262C51.8886 40.0546 50.3855 38.6371 48.6409 38.6371C46.8964 38.6371 45.3932 40.0546 45.3932 42.1262C45.3932 44.1771 46.8964 45.6153 48.6409 45.6153C50.3855 45.6153 51.8886 44.1745 51.8886 42.1262Z" fill="#FBBC05"/>
<path d="M66.3586 36.716V47.0535C66.3586 51.3059 63.8508 53.0426 60.8861 53.0426C58.0954 53.0426 56.4157 51.1761 55.7823 49.6496L57.9837 48.7332C58.3757 49.6703 59.3363 50.7763 60.8835 50.7763C62.7813 50.7763 63.9573 49.6054 63.9573 47.4014V46.5733H63.869C63.3031 47.2716 62.2127 47.8817 60.8368 47.8817C57.9578 47.8817 55.3202 45.3739 55.3202 42.147C55.3202 38.8967 57.9578 36.3682 60.8368 36.3682C62.2101 36.3682 63.3005 36.9782 63.869 37.6558H63.9573V36.7186H66.3586V36.716ZM64.1364 42.147C64.1364 40.1195 62.7838 38.6371 61.0627 38.6371C59.3181 38.6371 57.8565 40.1195 57.8565 42.147C57.8565 44.1537 59.3181 45.6153 61.0627 45.6153C62.7838 45.6153 64.1364 44.1537 64.1364 42.147Z" fill="#4285F4"/>
<path d="M70.318 30.6572V47.5316H67.8517V30.6572H70.318Z" fill="#34A853"/>
<path d="M79.9283 44.021L81.8909 45.3294C81.2575 46.2666 79.731 47.8813 77.0934 47.8813C73.8224 47.8813 71.3795 45.3528 71.3795 42.1233C71.3795 38.6991 73.8432 36.3652 76.8105 36.3652C79.7985 36.3652 81.2601 38.7432 81.7378 40.0283L82 40.6825L74.3027 43.8704C74.892 45.0257 75.8084 45.615 77.0934 45.615C78.3811 45.615 79.2741 44.9815 79.9283 44.021ZM73.8873 41.9493L79.0327 39.8128C78.7497 39.0937 77.8982 38.5926 76.8961 38.5926C75.6111 38.5926 73.8224 39.7271 73.8873 41.9493Z" fill="#EA4335"/>
<path d="M21.068 40.6282V38.1854H29.3001C29.3806 38.6111 29.4221 39.1147 29.4221 39.6599C29.4221 41.4927 28.9211 43.7591 27.3063 45.3738C25.7357 47.0093 23.729 47.8816 21.0706 47.8816C16.1433 47.8816 12 43.8681 12 38.9408C12 34.0135 16.1433 30 21.0706 30C23.7965 30 25.7383 31.0696 27.1973 32.4637L25.4735 34.1874C24.4273 33.2061 23.0099 32.4429 21.068 32.4429C17.4699 32.4429 14.6558 35.3427 14.6558 38.9408C14.6558 42.5389 17.4699 45.4387 21.068 45.4387C23.4019 45.4387 24.731 44.5016 25.5826 43.6501C26.2731 42.9595 26.7274 41.973 26.9065 40.6256L21.068 40.6282Z" fill="#4285F4"/>
</svg>
