<svg width="96" height="84" viewBox="0 0 96 84" fill="none" xmlns="http://www.w3.org/2000/svg">
<path d="M3.48254 39.4539C3.30476 39.2578 3.03809 39.2757 2.91364 39.5074L0.0335877 45.2997C-0.0730812 45.5314 0.0869222 45.7987 0.335816 45.7987H4.35367C4.47812 45.7987 4.60256 45.7274 4.6559 45.6027C5.5448 43.8026 5.01146 41.0757 3.48254 39.4539Z" fill="url(#paint0_linear_1403_2333)"/>
<path d="M5.59817 34.1785C3.98038 36.7449 4.08705 39.5787 5.15373 41.7174C6.22044 43.8561 7.0382 45.4779 7.09157 45.6026C7.1449 45.7274 7.26935 45.7987 7.39376 45.7987H11.4116C11.6605 45.7987 11.8383 45.5314 11.7138 45.2997C11.7138 45.2997 6.30933 34.4636 6.16707 34.1963C6.07818 33.9468 5.75819 33.9289 5.59817 34.1785Z" fill="#2684FF"/>
<path d="M60.2125 42.9293C60.2125 41.2362 59.3058 40.4341 56.7811 39.8817C55.3767 39.5787 55.0389 39.2578 55.0389 38.8123C55.0389 38.2598 55.537 38.0103 56.4615 38.0103C57.5814 38.0103 58.6835 38.3489 59.7326 38.8301V36.6023C59.0035 36.228 57.8658 35.9429 56.5322 35.9429C54.0258 35.9429 52.7279 37.0301 52.7279 38.8301C52.7279 40.2559 53.3858 41.3966 55.9812 41.8956C57.528 42.2164 57.848 42.4659 57.848 42.9828C57.848 43.4818 57.528 43.8026 56.4259 43.8026C55.1635 43.8026 53.6524 43.3749 52.6745 42.7867V45.1215C53.457 45.5136 54.4879 45.9413 56.4081 45.9413C59.1282 45.9413 60.2125 44.7294 60.2125 42.9293Z" fill="#0052CC"/>
<path d="M87.5553 36.0855V45.7987H89.6175V38.4024L90.4886 40.3629L93.4041 45.7987H96V36.0855H93.9378V42.359L93.1553 40.5411L90.8086 36.0855H87.5553Z" fill="#0052CC"/>
<path d="M74.453 36.0855H72.1949V45.7809H74.453V36.0855Z" fill="#0052CC"/>
<path d="M69.5816 42.9293C69.5816 41.2362 68.675 40.4341 66.1503 39.8817C64.7459 39.5787 64.4081 39.2578 64.4081 38.8123C64.4081 38.2598 64.9062 38.0103 65.8302 38.0103C66.9506 38.0103 68.0527 38.3489 69.1018 38.8301V36.6023C68.3727 36.228 67.235 35.9429 65.9014 35.9429C63.395 35.9429 62.0971 37.0301 62.0971 38.8301C62.0971 40.2559 62.755 41.3966 65.3504 41.8956C66.8972 42.2164 67.2172 42.4659 67.2172 42.9828C67.2172 43.4818 66.8972 43.8026 65.7951 43.8026C64.5327 43.8026 63.0216 43.3749 62.0437 42.7867V45.1215C62.8257 45.5136 63.857 45.9413 65.7773 45.9413C68.5147 45.9413 69.5816 44.7294 69.5816 42.9293Z" fill="#0052CC"/>
<path d="M35.2342 36.0855V45.7987H39.8565L40.5854 43.6957H37.4921V36.0855H35.2342Z" fill="#0052CC"/>
<path d="M26.0785 36.0858V38.1889H28.5852V45.7991H30.8431V38.1889H33.5275V36.0858H26.0785Z" fill="#0052CC"/>
<path d="M22.7896 36.0858H19.8207L16.4428 45.7813H19.0206L19.5007 44.1416C20.0695 44.302 20.674 44.409 21.314 44.409C21.9363 44.409 22.5407 44.3198 23.1274 44.1416L23.6074 45.7813H26.1852L22.7896 36.0858ZM21.2963 42.4128C20.8696 42.4128 20.4429 42.3416 20.0518 42.2346L21.2963 37.9929L22.5407 42.2346C22.1496 42.3416 21.7407 42.4128 21.2963 42.4128Z" fill="#0052CC"/>
<path d="M47.8568 36.0855H44.8878L41.51 45.7809H44.0878L44.5678 44.1412C45.1367 44.3016 45.7412 44.4086 46.3812 44.4086C47.0034 44.4086 47.6079 44.3195 48.1945 44.1412L48.6746 45.7809H51.2523L47.8568 36.0855ZM46.3634 42.4124C45.9367 42.4124 45.5101 42.3412 45.1189 42.2342L46.3634 37.9925L47.6078 42.2342C47.2168 42.3412 46.7901 42.4124 46.3634 42.4124Z" fill="#0052CC"/>
<path d="M82.5598 36.0855H79.5904L76.213 45.7809H78.7906L79.2704 44.1412C79.8397 44.3016 80.4442 44.4086 81.0838 44.4086C81.7061 44.4086 82.3105 44.3195 82.8972 44.1412L83.3775 45.7809H85.9551L82.5598 36.0855ZM81.0838 42.4124C80.6574 42.4124 80.2305 42.3412 79.8397 42.2342L81.0838 37.9925L82.3283 42.2342C81.9197 42.3412 81.5107 42.4124 81.0838 42.4124Z" fill="#0052CC"/>
<defs>
<linearGradient id="paint0_linear_1403_2333" x1="95.7124" y1="35.8811" x2="94.9803" y2="48.8343" gradientUnits="userSpaceOnUse">
<stop stop-color="#0052CC"/>
<stop offset="0.9228" stop-color="#2684FF"/>
</linearGradient>
</defs>
</svg>
