<svg width="96" height="84" viewBox="0 0 96 84" fill="none" xmlns="http://www.w3.org/2000/svg">
<path d="M15.2935 43.3009C15.2935 44.1117 15.4714 44.7342 15.704 45.1107C16.009 45.604 16.4638 45.813 16.9276 45.813C17.5257 45.813 18.0728 45.6645 19.1273 44.2062C19.972 43.0373 20.9674 41.3966 21.6371 40.368L22.7713 38.6254C23.5592 37.4151 24.4711 36.0697 25.5167 35.1578C26.3702 34.4135 27.291 34 28.2177 34C29.7735 34 31.2555 34.9016 32.3897 36.5925C33.631 38.4444 34.2335 40.7771 34.2335 43.1842C34.2335 44.6153 33.9514 45.6668 33.4715 46.4975C33.0077 47.3008 32.1039 48.1035 30.5836 48.1035V45.813C31.8854 45.813 32.2103 44.6167 32.2103 43.2477C32.2103 41.2969 31.7554 39.1319 30.7534 37.5849C30.0423 36.4877 29.1208 35.8172 28.107 35.8172C27.0104 35.8172 26.1281 36.6442 25.1364 38.1188C24.6092 38.9023 24.0679 39.857 23.4602 40.9343L22.7912 42.1195C21.4473 44.5023 21.1069 45.045 20.435 45.9407C19.2572 47.5091 18.2515 48.1035 16.9276 48.1035C15.357 48.1035 14.3638 47.4234 13.7487 46.3985C13.2466 45.5634 13 44.4676 13 43.219L15.2935 43.3009Z" fill="#0081FB"/>
<path d="M14.8085 36.7542C15.86 35.1334 17.3774 34 19.1178 34C20.1258 34 21.1278 34.2983 22.1741 35.1526C23.3186 36.0867 24.5385 37.6248 26.0603 40.1598L26.606 41.0695C27.9233 43.264 28.6728 44.393 29.1114 44.9254C29.6755 45.6092 30.0706 45.813 30.5838 45.813C31.8856 45.813 32.2105 44.6167 32.2105 43.2477L34.2337 43.1842C34.2337 44.6153 33.9516 45.6668 33.4716 46.4975C33.0079 47.3008 32.1041 48.1035 30.5838 48.1035C29.6386 48.1035 28.8013 47.8982 27.8753 47.0247C27.1635 46.3542 26.3313 45.1632 25.6911 44.0925L23.7868 40.9114C22.8313 39.315 21.9548 38.1247 21.4475 37.5857C20.9018 37.006 20.2003 36.306 19.0809 36.306C18.1749 36.306 17.4055 36.9418 16.7616 37.9143L14.8085 36.7542Z" fill="url(#paint0_linear_1403_2317)"/>
<path d="M19.0807 36.306C18.1747 36.306 17.4053 36.9418 16.7614 37.9143C15.851 39.2884 15.2935 41.3353 15.2935 43.3009C15.2935 44.1117 15.4714 44.7342 15.704 45.1107L13.7487 46.3985C13.2466 45.5634 13 44.4676 13 43.219C13 40.9484 13.6232 38.5818 14.8083 36.7542C15.8598 35.1334 17.3772 34 19.1177 34L19.0807 36.306Z" fill="url(#paint1_linear_1403_2317)"/>
<path d="M38.6913 34.4463H41.3444L45.8553 42.6071L50.3669 34.4463H52.9624V47.8557H50.7981V37.5786L46.8418 44.6953H44.8112L40.8555 37.5786V47.8557H38.6913V34.4463ZM59.7439 39.446C58.1917 39.446 57.2569 40.6142 57.0332 42.0607H62.3009C62.1924 40.5706 61.3329 39.446 59.7439 39.446ZM54.8874 42.8848C54.8874 39.8411 56.8545 37.6258 59.7815 37.6258C62.6606 37.6258 64.3796 39.813 64.3796 43.0472V43.6416H57.0332C57.2938 45.2152 58.3379 46.2755 60.0215 46.2755C61.3647 46.2755 62.2042 45.8657 63.0002 45.1162L64.1499 46.5243C63.0667 47.5204 61.6888 48.0949 59.9447 48.0949C56.7762 48.0949 54.8874 45.7845 54.8874 42.8848ZM67.0038 39.638H65.0116V37.8658H67.0038V34.9351H69.092V37.8658H72.1187V39.638H69.092V44.1297C69.092 45.6634 69.5823 46.2083 70.7874 46.2083C71.3375 46.2083 71.6528 46.161 72.1187 46.0835V47.8365C71.5384 48.0004 70.9846 48.0757 70.385 48.0757C68.1306 48.0757 67.0038 46.8441 67.0038 44.3785V39.638ZM80.9116 41.3614C80.4922 40.3026 79.5567 39.5228 78.1818 39.5228C76.3948 39.5228 75.251 40.7906 75.251 42.856C75.251 44.8696 76.304 46.1987 78.0961 46.1987C79.505 46.1987 80.5107 45.3791 80.9116 44.3593V41.3614ZM82.9998 47.8557H80.95V46.4571C80.377 47.2805 79.3344 48.0949 77.6457 48.0949C74.9298 48.0949 73.1148 45.8214 73.1148 42.856C73.1148 39.8625 74.9734 37.6258 77.7609 37.6258C79.1387 37.6258 80.2197 38.1767 80.95 39.1492V37.8658H82.9998V47.8557Z" fill="#192830"/>
<defs>
<linearGradient id="paint0_linear_1403_2317" x1="17.5044" y1="42.6393" x2="32.1248" y2="43.3777" gradientUnits="userSpaceOnUse">
<stop stop-color="#0064E1"/>
<stop offset="0.4" stop-color="#0064E1"/>
<stop offset="0.83" stop-color="#0073EE"/>
<stop offset="1" stop-color="#0082FB"/>
</linearGradient>
<linearGradient id="paint1_linear_1403_2317" x1="16.3228" y1="44.2638" x2="16.3228" y2="38.8735" gradientUnits="userSpaceOnUse">
<stop stop-color="#0082FB"/>
<stop offset="1" stop-color="#0064E0"/>
</linearGradient>
</defs>
</svg>
