<svg width="96" height="84" viewBox="0 0 96 84" fill="none" xmlns="http://www.w3.org/2000/svg">
<path d="M74.0237 36.89V34.5392H77.1768C77.1804 34.6219 77.187 34.7027 77.1871 34.7835C77.1876 37.3093 77.1875 39.8351 77.1875 42.3609C77.1875 43.7235 77.1845 45.086 77.1903 46.4485C77.1913 46.6849 77.2113 46.9246 77.2539 47.1569C77.3508 47.6852 77.6542 47.946 78.1889 47.9784C78.3926 47.9907 78.5975 47.9837 78.8017 47.9866C78.8641 47.9875 78.9264 47.9922 79 47.9956V50.979C78.949 50.9842 78.9004 50.9935 78.8518 50.9936C78.3856 50.9946 77.9194 50.9962 77.4533 50.9934C77.0165 50.9908 76.5877 50.9282 76.1718 50.7926C75.1655 50.4643 74.5597 49.7727 74.3408 48.7338C74.3229 48.6489 74.3057 48.5637 74.283 48.4532C74.2393 48.5067 74.2103 48.5381 74.1859 48.5727C73.1468 50.0445 71.7266 50.9016 69.9664 51.1835C67.3878 51.5965 65.1344 50.8915 63.2302 49.1031C61.9246 47.8769 61.129 46.3495 60.7909 44.5905C60.4446 42.7884 60.5671 41.014 61.2773 39.3138C62.2924 36.8835 64.0458 35.2403 66.5789 34.5129C68.322 34.0124 70.0435 34.1375 71.696 34.9165C72.6038 35.3445 73.3537 35.9725 73.923 36.8097C73.9373 36.8309 73.9532 36.851 73.9695 36.8707C73.973 36.8749 73.9812 36.8752 74.0237 36.89ZM74.0454 42.6554C74.0451 42.1283 73.973 41.5781 73.8026 41.0093C73.435 39.7819 72.7469 38.7907 71.6473 38.1196C70.698 37.5402 69.6592 37.3341 68.5601 37.4463C66.7942 37.6266 65.476 38.5057 64.6528 40.085C63.959 41.4159 63.8593 42.8324 64.2125 44.281C64.4806 45.3804 65.0389 46.31 65.9208 47.0224C67.0369 47.9241 68.3249 48.2409 69.7288 48.0613C71.4331 47.8433 72.6691 46.9304 73.4522 45.4003C73.875 44.5741 74.0494 43.6845 74.0454 42.6554Z" fill="black"/>
<path d="M34.9158 42.7709C34.9111 44.3432 34.5655 45.8291 33.7693 47.1907C32.6812 49.0514 31.0972 50.2976 29.0469 50.9128C26.8061 51.5853 24.6067 51.4305 22.5165 50.3601C20.175 49.161 18.7451 47.2241 18.2064 44.6411C17.8272 42.8226 17.9615 41.0297 18.6844 39.3122C19.6769 36.954 21.4112 35.3746 23.84 34.6332C26.4195 33.8458 28.8998 34.1423 31.1852 35.6139C33.0843 36.8369 34.2315 38.6099 34.7168 40.8195C34.8577 41.4612 34.9214 42.1127 34.9158 42.7709ZM26.5586 48.1102C26.6862 48.1002 26.923 48.0932 27.1564 48.0613C28.777 47.8395 30.0126 47.0196 30.8039 45.5815C31.6088 44.1186 31.7119 42.562 31.2398 40.9723C30.8623 39.7009 30.1057 38.7077 28.9476 38.0533C27.9198 37.4725 26.8109 37.2981 25.6522 37.4845C23.9356 37.7606 22.6996 38.705 21.9567 40.2796C21.3837 41.4941 21.2884 42.7734 21.5644 44.0814C21.7893 45.1471 22.2804 46.071 23.0796 46.8135C24.0294 47.6959 25.1671 48.0968 26.5586 48.1102Z" fill="black"/>
<path d="M44.2658 42.0467C46.6586 45.0245 49.0415 47.99 51.4461 50.9825C51.3566 50.9878 51.3023 50.9939 51.248 50.9939C49.9774 50.9944 48.7067 50.9928 47.4361 50.9967C47.3166 50.9971 47.2391 50.9632 47.1624 50.867C45.3728 48.6214 43.5795 46.3788 41.7868 44.1357C41.7548 44.0956 41.7212 44.0567 41.6912 44.0153C41.6509 43.9596 41.6022 43.9318 41.53 43.9326C41.2235 43.9362 40.917 43.9346 40.6105 43.9359C40.5927 43.936 40.5749 43.9453 40.5383 43.9556V50.9554C40.3861 51.0016 37.5448 51.0172 37.2243 50.9777V29.0324C37.3614 28.9963 40.278 28.986 40.5298 29.024V40.8604C40.6073 40.8653 40.6631 40.8716 40.7189 40.8719C40.936 40.8731 41.1535 40.865 41.3701 40.8753C41.4937 40.8812 41.5663 40.8376 41.6372 40.7365C42.1305 40.0332 42.6305 39.3346 43.1283 38.6344C44.0645 37.3177 45.0019 36.002 45.9344 34.6826C46.0125 34.5721 46.091 34.5231 46.2297 34.5239C47.3471 34.5298 48.4645 34.5272 49.5819 34.5272C49.6326 34.5272 49.6833 34.5272 49.7298 34.5272C49.7365 34.5424 49.74 34.548 49.7415 34.5542C49.743 34.56 49.7453 34.5684 49.7425 34.5721C47.921 37.0586 46.0991 39.5448 44.2658 42.0467Z" fill="black"/>
<path d="M59.7914 37.5323H55.6196C55.6127 37.5943 55.6037 37.637 55.6037 37.6797C55.6041 40.6483 55.6037 43.6169 55.6092 46.5855C55.6096 46.7893 55.6402 46.9956 55.6795 47.1962C55.7632 47.6234 56.036 47.8681 56.4564 47.9387C56.6441 47.9702 56.8369 47.9832 57.0275 47.9843C57.8957 47.9889 58.764 47.9862 59.6323 47.9866C59.6827 47.9866 59.733 47.9911 59.7812 47.9934C59.8225 48.1356 59.8319 50.7508 59.7914 50.9855C59.7324 50.9883 59.6703 50.9939 59.6082 50.9939C58.3633 50.9944 57.1183 50.994 55.8733 50.9944C55.4165 50.9945 54.9691 50.9289 54.5369 50.7812C53.4029 50.3935 52.7177 49.593 52.4261 48.4354C52.3155 47.9963 52.2823 47.548 52.2822 47.0978C52.2804 41.1348 52.281 35.1718 52.2813 29.2088C52.2813 29.1462 52.2869 29.0836 52.2903 29.0125H55.5966C55.6103 29.6235 55.601 30.2312 55.6027 30.8387C55.6044 31.4492 55.603 32.0596 55.603 32.67C55.603 33.2794 55.603 33.8888 55.603 34.5269C56.3101 34.527 57.0031 34.5271 57.696 34.5272C58.3913 34.5272 59.0866 34.5272 59.778 34.5272C59.8225 34.6725 59.8339 37.2691 59.7914 37.5323Z" fill="black"/>
</svg>
