<svg width="96" height="84" viewBox="0 0 96 84" fill="none" xmlns="http://www.w3.org/2000/svg">
<path d="M37.9632 39.9904C37.9632 40.5564 38.0243 41.0154 38.1314 41.352C38.2538 41.6886 38.4068 42.0557 38.621 42.4535C38.6975 42.5759 38.7281 42.6983 38.7281 42.8054C38.7281 42.9584 38.6363 43.1114 38.4374 43.2644L37.4736 43.9069C37.3359 43.9987 37.1982 44.0446 37.0758 44.0446C36.9228 44.0446 36.7698 43.9681 36.6168 43.8304C36.4026 43.601 36.219 43.3562 36.0661 43.1114C35.9131 42.8513 35.7601 42.5606 35.5918 42.2087C34.3984 43.6163 32.8991 44.32 31.0938 44.32C29.8087 44.32 28.7837 43.9528 28.034 43.2185C27.2843 42.4841 26.9019 41.505 26.9019 40.281C26.9019 38.9806 27.3608 37.925 28.2941 37.1294C29.2273 36.3339 30.4666 35.9361 32.0424 35.9361C32.5625 35.9361 33.098 35.982 33.6641 36.0585C34.2302 36.135 34.8115 36.2574 35.4235 36.3951V35.2782C35.4235 34.1155 35.1787 33.3046 34.7044 32.8303C34.2149 32.3561 33.3887 32.1266 32.2107 32.1266C31.6752 32.1266 31.1244 32.1878 30.5584 32.3255C29.9923 32.4632 29.4415 32.6315 28.906 32.8456C28.6613 32.9527 28.4777 33.0139 28.3706 33.0445C28.2635 33.0751 28.187 33.0904 28.1258 33.0904C27.9116 33.0904 27.8045 32.9374 27.8045 32.6162V31.8665C27.8045 31.6217 27.8351 31.4381 27.9116 31.331C27.9881 31.2239 28.1258 31.1168 28.34 31.0097C28.8754 30.7344 29.518 30.5049 30.2677 30.3213C31.0173 30.1224 31.8129 30.0306 32.6543 30.0306C34.4749 30.0306 35.806 30.4437 36.6627 31.2698C37.5042 32.096 37.9326 33.3505 37.9326 35.0334V39.9904H37.9632ZM31.7517 42.3158C32.2566 42.3158 32.7767 42.224 33.3275 42.0404C33.8783 41.8569 34.3678 41.5203 34.7809 41.0613C35.0257 40.7706 35.2093 40.4493 35.3011 40.0821C35.3929 39.715 35.4541 39.2713 35.4541 38.7511V38.1086C35.0104 38.0015 34.5361 37.9097 34.0466 37.8485C33.557 37.7873 33.0827 37.7567 32.6084 37.7567C31.5834 37.7567 30.8337 37.9556 30.3289 38.3686C29.824 38.7817 29.5792 39.3631 29.5792 40.128C29.5792 40.8471 29.7628 41.3826 30.1453 41.7498C30.5125 42.1322 31.0479 42.3158 31.7517 42.3158ZM44.0369 43.9681C43.7615 43.9681 43.5779 43.9222 43.4555 43.8151C43.3332 43.7233 43.2261 43.5092 43.1343 43.2185L39.539 31.3922C39.4472 31.0862 39.4013 30.8874 39.4013 30.7803C39.4013 30.5355 39.5237 30.3978 39.7685 30.3978H41.2678C41.5585 30.3978 41.7573 30.4437 41.8644 30.5508C41.9868 30.6426 42.0786 30.8568 42.1704 31.1474L44.7407 41.2755L47.1273 31.1474C47.2038 30.8415 47.2956 30.6426 47.418 30.5508C47.5404 30.459 47.7546 30.3978 48.03 30.3978H49.2539C49.5446 30.3978 49.7435 30.4437 49.8659 30.5508C49.9883 30.6426 50.0954 30.8568 50.1566 31.1474L52.5738 41.3979L55.2206 31.1474C55.3124 30.8415 55.4195 30.6426 55.5266 30.5508C55.649 30.459 55.8479 30.3978 56.1233 30.3978H57.5461C57.7909 30.3978 57.9286 30.5202 57.9286 30.7803C57.9286 30.8568 57.9133 30.9332 57.898 31.025C57.8827 31.1168 57.8521 31.2392 57.7909 31.4075L54.1038 43.2338C54.012 43.5398 53.9049 43.7386 53.7825 43.8304C53.6601 43.9222 53.4612 43.9834 53.2011 43.9834H51.8854C51.5947 43.9834 51.3958 43.9375 51.2734 43.8304C51.151 43.7233 51.0439 43.5245 50.9827 43.2185L48.6114 33.3505L46.2553 43.2032C46.1788 43.5092 46.087 43.708 45.9646 43.8151C45.8422 43.9222 45.628 43.9681 45.3526 43.9681H44.0369ZM63.6963 44.3812C62.9008 44.3812 62.1052 44.2894 61.3403 44.1058C60.5753 43.9222 59.9786 43.7233 59.5809 43.4939C59.3361 43.3562 59.1678 43.2032 59.1066 43.0655C59.0454 42.9278 59.0148 42.7748 59.0148 42.6371V41.8569C59.0148 41.5356 59.1372 41.3826 59.3667 41.3826C59.4585 41.3826 59.5503 41.3979 59.6421 41.4285C59.7339 41.4591 59.8716 41.5203 60.0245 41.5815C60.5447 41.811 61.1108 41.9945 61.7074 42.1169C62.3194 42.2393 62.9161 42.3005 63.528 42.3005C64.4919 42.3005 65.2416 42.1322 65.7617 41.7957C66.2819 41.4591 66.5573 40.9695 66.5573 40.3422C66.5573 39.9139 66.4196 39.562 66.1442 39.2713C65.8688 38.9806 65.3486 38.7205 64.599 38.4757L62.3806 37.7873C61.2638 37.4354 60.4376 36.9152 59.9327 36.2268C59.4279 35.5536 59.1678 34.8039 59.1678 34.0084C59.1678 33.3658 59.3055 32.7997 59.5809 32.3102C59.8562 31.8206 60.2234 31.3922 60.6824 31.0556C61.1414 30.7038 61.6616 30.4437 62.2735 30.2601C62.8855 30.0765 63.528 30 64.2012 30C64.5378 30 64.8897 30.0153 65.2263 30.0612C65.5781 30.1071 65.8994 30.1683 66.2207 30.2295C66.5267 30.306 66.8174 30.3825 67.0928 30.4743C67.3681 30.5661 67.5823 30.6579 67.7353 30.7497C67.9495 30.8721 68.1025 30.9944 68.1943 31.1321C68.2861 31.2545 68.332 31.4228 68.332 31.637V32.3561C68.332 32.6774 68.2096 32.8456 67.9801 32.8456C67.8577 32.8456 67.6588 32.7844 67.3987 32.6621C66.5267 32.2643 65.5475 32.0654 64.4613 32.0654C63.5892 32.0654 62.9008 32.2031 62.4265 32.4938C61.9522 32.7844 61.7074 33.2281 61.7074 33.8554C61.7074 34.2838 61.8604 34.6509 62.1664 34.9416C62.4724 35.2323 63.0385 35.523 63.8493 35.7831L66.0218 36.4715C67.1234 36.8234 67.9189 37.313 68.3932 37.9403C68.8675 38.5675 69.0969 39.2866 69.0969 40.0821C69.0969 40.74 68.9592 41.3367 68.6992 41.8569C68.4238 42.377 68.0566 42.836 67.5823 43.2032C67.1081 43.5857 66.542 43.861 65.8841 44.0599C65.1957 44.2741 64.4766 44.3812 63.6963 44.3812Z" fill="#252F3E"/>
<path fill-rule="evenodd" clip-rule="evenodd" d="M66.588 51.8176C61.5546 55.5353 54.2416 57.5089 47.9536 57.5089C39.1413 57.5089 31.2011 54.2501 25.2038 48.8342C24.7295 48.4059 25.1579 47.8245 25.724 48.1611C32.2108 51.9247 40.2123 54.2042 48.4891 54.2042C54.0733 54.2042 60.2083 53.0415 65.8537 50.6548C66.6951 50.2724 67.4142 51.2056 66.588 51.8176Z" fill="#FF9900"/>
<path fill-rule="evenodd" clip-rule="evenodd" d="M68.6838 49.4321C68.0413 48.606 64.4307 49.0344 62.7937 49.2332C62.3041 49.2944 62.2276 48.8661 62.6713 48.5448C65.5475 46.5253 70.275 47.1067 70.8257 47.7798C71.3765 48.4683 70.6727 53.1957 67.9801 55.46C67.567 55.8119 67.1692 55.6283 67.3528 55.1693C67.9648 53.6547 69.3264 50.243 68.6838 49.4321Z" fill="#FF9900"/>
</svg>
